<?xml version="1.0" encoding="UTF-8"?> <svg xmlns="http://www.w3.org/2000/svg" width="121" height="29" viewBox="0 0 121 29" fill="none"><path d="M118.752 2.03516C119.569 2.03523 120.231 2.69829 120.231 3.51562V10.3018C120.231 11.119 119.569 11.7812 118.752 11.7812H107.816C106.999 11.7812 106.336 11.119 106.336 10.3018V3.51562C106.336 2.69825 106.999 2.03516 107.816 2.03516H118.752ZM108.969 10.1162H110.258L110.848 8.50879H113.099L113.698 10.1162H114.986L112.536 3.67188H111.429L108.969 10.1162ZM115.695 3.67188V10.1162H116.948V3.67188H115.695ZM112.873 7.62891H111.058L111.983 5.09766L112.873 7.62891Z" fill="white"></path><path d="M36.7795 22.3984H34.1172V2.6128H36.7795V22.3984ZM51.3615 9.51054C50.3389 7.78006 48.8202 6.90876 46.4605 6.90876C45.0688 6.90876 43.7909 7.35651 42.7091 8.60294L42.726 7.15079H40.0637L40.0468 22.3984H42.7091V12.9885C42.7091 11.1115 44.0402 9.60009 46.3395 9.60009C49.0017 9.60009 49.9093 11.6573 49.9093 13.7145V22.3984H52.5716V13.6903C52.5716 11.6573 53.2372 9.57589 56.1415 9.57589C58.8485 9.57589 59.6508 11.5121 59.6508 13.5693V22.3984H62.3131V13.1095C62.3131 11.0873 61.1332 6.9136 56.4113 6.9136C52.2739 6.9136 51.301 9.51054 51.301 9.51054M104.296 20.2202C103.208 20.2202 102.852 20.0036 102.852 18.768V1.88672H100.19V19.2521C100.19 22.6405 102.785 22.6393 103.634 22.6393C104.484 22.6393 104.789 22.4747 104.789 22.4747V20.2202H104.296ZM72.8606 9.45004C70.1305 9.45004 67.6982 11.834 67.6982 14.7746C67.6982 17.5349 70.1305 20.0992 72.8606 20.0992C75.5906 20.0992 78.023 17.7152 78.023 14.7746C78.023 11.834 75.7116 9.45004 72.8606 9.45004ZM80.707 14.7746C80.707 19.119 77.24 22.6405 72.9622 22.6405C71.0175 22.6405 69.2399 21.912 67.8797 20.7091V26.9364H65.2174V7.15079H67.8797V8.85223C69.2399 7.64936 71.0175 6.90876 72.9622 6.90876C77.24 6.90876 80.707 10.4302 80.707 14.7746ZM96.1083 15.9242H85.0465C85.5645 18.3034 87.7754 20.0847 90.2791 20.0992C92.1669 20.0992 93.8913 19.3308 94.88 17.8254L96.9481 19.2606C95.4088 21.3795 92.8155 22.6405 90.146 22.6405C85.8355 22.6405 82.3407 19.119 82.3407 14.7746C82.3407 10.4302 85.8355 6.90876 90.146 6.90876C94.4565 6.90876 97.9513 10.4302 97.9513 14.7746C97.9513 15.1655 97.9223 15.5491 97.8678 15.9242H96.1083ZM95.2854 13.4435C94.7009 11.1466 92.6401 9.45004 90.1871 9.45004C87.7342 9.45004 85.6734 11.1466 85.0889 13.4435H95.2854Z" fill="white"></path><path d="M11.2961 0.917969H6.8707L0.234375 12.4142L6.87191 23.9105H11.2973L17.9349 12.4142L11.2961 0.917969ZM9.08402 20.078L4.65859 12.4142L9.08402 4.75045L13.5094 12.4142L9.08402 20.078Z" fill="white"></path><path d="M26.7817 12.4142L20.1442 23.9105H15.7188L22.3563 12.4142L15.72 0.917969H20.1454L26.7829 12.4142H26.7817Z" fill="white"></path></svg> 