<?xml version="1.0" encoding="UTF-8"?> <svg xmlns="http://www.w3.org/2000/svg" width="121" height="29" viewBox="0 0 121 29" fill="none"><path d="M119.011 1.76562H108.074C107.256 1.76562 106.594 2.42832 106.594 3.24579V10.033C106.594 10.8505 107.256 11.5132 108.074 11.5132H119.011C119.829 11.5132 120.491 10.8505 120.491 10.033V3.24579C120.491 2.42832 119.829 1.76562 119.011 1.76562Z" fill="#121212"></path><path d="M111.687 3.40234H112.794L115.245 9.84706H113.956L113.357 8.23981H111.106L110.516 9.84706H109.227L111.687 3.40234ZM113.131 7.35994L112.241 4.82805L111.315 7.35994H113.131Z" fill="#ECE9FC"></path><path d="M115.953 9.84706V3.40234H117.206V9.84706H115.953Z" fill="#ECE9FC"></path><path d="M37.0373 22.1313H34.375V2.34335H37.0373V22.1313ZM51.6193 9.24192C50.5967 7.51123 49.078 6.63983 46.7183 6.63983C45.3266 6.63983 44.0487 7.08763 42.9669 8.33421L42.9838 6.88188H40.3216L40.3046 22.1313H42.9669V12.7203C42.9669 10.8431 44.298 9.33148 46.5973 9.33148C49.2595 9.33148 50.1671 11.3889 50.1671 13.4464V22.1313H52.8294V13.4222C52.8294 11.3889 53.495 9.30727 56.3993 9.30727C59.1063 9.30727 59.9086 11.2437 59.9086 13.3012V22.1313H62.5709V12.8413C62.5709 10.8189 61.3911 6.64467 56.6691 6.64467C52.5317 6.64467 51.5588 9.24192 51.5588 9.24192M104.554 19.9529C103.466 19.9529 103.11 19.7362 103.11 18.5005V1.61719H100.448V18.9846C100.448 22.3734 103.042 22.3722 103.892 22.3722C104.741 22.3722 105.046 22.2076 105.046 22.2076V19.9529H104.554ZM73.1184 9.18141C70.3883 9.18141 67.956 11.5656 67.956 14.5066C67.956 17.2673 70.3883 19.8318 73.1184 19.8318C75.8484 19.8318 78.2808 17.4476 78.2808 14.5066C78.2808 11.5656 75.9694 9.18141 73.1184 9.18141ZM80.9648 14.5066C80.9648 18.8515 77.4978 22.3734 73.22 22.3734C71.2754 22.3734 69.4977 21.6448 68.1375 20.4418V26.6699H65.4752V6.88188H68.1375V8.58353C69.4977 7.38052 71.2754 6.63983 73.22 6.63983C77.4978 6.63983 80.9648 10.1617 80.9648 14.5066ZM96.3661 15.6564H85.3043C85.8223 18.0358 88.0332 19.8173 90.5369 19.8318C92.4247 19.8318 94.1492 19.0633 95.1378 17.5577L97.2059 18.9931C95.6667 21.1123 93.0733 22.3734 90.4038 22.3734C86.0933 22.3734 82.5985 18.8515 82.5985 14.5066C82.5985 10.1617 86.0933 6.63983 90.4038 6.63983C94.7143 6.63983 98.2091 10.1617 98.2091 14.5066C98.2091 14.8975 98.1801 15.2812 98.1256 15.6564H96.3661ZM95.5432 13.1753C94.9587 10.8782 92.8979 9.18141 90.445 9.18141C87.992 9.18141 85.9312 10.8782 85.3467 13.1753H95.5432Z" fill="#121212"></path><path d="M11.5539 0.648438H7.12851L0.492188 12.1461L7.12972 23.6437H11.5552L18.1927 12.1461L11.5539 0.648438ZM9.34183 19.8107L4.91641 12.1461L9.34183 4.48138L13.7673 12.1461L9.34183 19.8107Z" fill="#6C44E4"></path><path d="M27.0395 12.1461L20.402 23.6437H15.9766L22.6141 12.1461L15.9778 0.648438H20.4032L27.0407 12.1461H27.0395Z" fill="#6C44E4"></path></svg> 